<svg width="790" height="188" viewBox="0 0 790 188" fill="none" xmlns="http://www.w3.org/2000/svg">
<path d="M273.567 0.685019C265.895 3.3534 236.543 43.0455 218.865 74.7325C212.861 85.406 207.524 93.4112 206.857 92.7441C205.189 91.0763 217.531 44.3797 223.868 29.7036C230.539 13.0263 230.539 11.3585 218.865 5.35468C202.854 -2.984 184.843 -1.31626 174.837 9.35725C154.157 31.3714 103.791 118.427 92.1168 151.782C84.7787 173.463 85.7794 178.466 98.7877 183.802C109.795 188.472 115.465 186.137 115.465 176.798C115.465 167.459 128.14 131.769 139.814 108.754C151.488 85.0725 175.837 46.0474 177.505 48.0487C178.172 48.7158 175.837 63.3919 172.502 80.7364C165.164 116.759 160.494 163.456 163.496 173.129C165.831 180.467 178.839 187.138 190.18 187.138C198.185 187.138 202.187 181.468 202.187 170.794C202.187 160.454 215.863 122.763 229.538 95.4124C243.214 68.3951 262.226 39.3765 264.561 41.7113C265.561 42.3784 262.893 57.7216 258.89 76.0667C254.888 94.0783 250.885 124.098 249.885 142.443L247.883 176.464L258.223 181.801C263.894 184.803 272.232 187.138 277.236 187.138C285.574 187.138 285.574 186.804 285.574 159.454C285.574 123.764 292.912 76.4002 304.253 39.71C309.256 23.6998 312.592 9.35725 311.591 8.35661C306.588 3.68694 279.904 -1.98336 273.567 0.685019Z" fill="#FFB527"/>
<path d="M561.749 45.3803C552.076 61.3906 549.408 63.3919 540.068 63.7254C530.729 63.7254 529.061 65.0596 529.061 72.0641C529.061 73.7087 529.268 78.3787 529.849 79.9968C530.799 82.6451 532.535 82.0359 534.398 83.0712C539.401 85.7395 539.401 87.4073 534.732 102.417C520.056 147.446 520.723 165.457 537.734 173.462C551.075 179.466 570.088 178.132 578.426 170.461C588.433 161.121 588.433 152.115 578.426 155.451C556.746 161.788 555.745 161.788 555.745 151.782C555.745 139.774 561.082 120.095 569.754 99.7485C575.758 86.0731 577.759 84.0718 589.433 82.0705C596.438 80.7363 603.109 78.735 604.109 77.0673C607.111 72.0641 601.775 63.7254 595.437 63.7254C589.433 63.7254 589.767 62.3912 598.106 50.05C606.778 36.7081 607.111 36.041 600.774 31.7049C597.439 29.0365 589.767 27.0352 583.763 27.0352C574.09 27.0352 571.422 29.0365 561.749 45.3803Z" fill="#FFB527"/>
<path d="M722.855 64.0588C716.852 73.7316 695.838 133.77 691.168 154.45C689.501 161.121 690.835 165.124 696.505 170.46C709.18 182.135 714.85 179.133 720.854 158.119C726.858 137.106 735.53 122.763 748.205 111.756L756.544 104.752L766.217 114.758C775.556 124.097 776.89 124.431 781.893 119.094C785.229 115.759 793.568 103.85 788.231 96.0793C782.894 88.3082 789.565 76.0665 789.898 72.3974C790.566 68.7284 787.897 65.3929 782.894 63.3917C776.223 60.7233 773.221 62.391 760.213 76.0665C750.873 85.7393 747.204 88.4077 750.54 83.071C758.545 69.7291 757.211 65.7265 744.203 59.3891C729.193 52.0511 730.194 52.0511 722.855 64.0588Z" fill="#FFB527"/>
<path d="M46.0894 62.7249C9.06564 81.07 -13.6156 145.111 9.06564 169.126C23.4082 184.47 55.4287 177.799 75.4416 154.784C83.7802 145.778 85.1144 142.109 81.779 138.44C78.777 134.771 75.7751 135.772 64.4345 145.778C48.4242 159.454 36.083 163.456 31.7469 156.785C27.4107 149.781 27.7443 148.78 40.0855 143.11C56.4294 135.105 74.7745 117.76 82.4461 103.418C99.457 69.7294 78.777 46.381 46.0894 62.7249ZM68.7706 90.7428C68.7706 95.0789 61.7661 105.085 52.4268 114.091C28.7449 138.107 21.4069 135.438 37.0836 108.421C50.092 86.0732 68.7706 75.7332 68.7706 90.7428Z" fill="#FFB527"/>
<path d="M341.613 63.7256C315.929 77.401 292.915 120.429 296.584 147.78C300.253 174.463 323.601 184.803 350.952 171.795C367.296 163.79 383.639 144.444 378.636 138.44C375.634 134.771 372.632 135.772 361.292 145.778C345.282 159.454 332.94 163.456 328.604 156.785C325.269 151.782 325.602 151.449 350.952 133.771C370.965 120.095 382.972 103.084 384.64 85.7397C387.642 59.723 368.296 49.7166 341.613 63.7256ZM365.628 90.7429C365.628 98.4145 336.276 130.435 329.271 130.435C323.267 130.435 324.935 122.096 334.274 108.421C349.284 85.7397 365.628 76.7339 365.628 90.7429Z" fill="#FFB527"/>
<path d="M423.666 71.0634C405.655 99.0813 394.648 130.768 394.314 153.783C393.981 174.129 394.648 175.464 401.652 176.464C407.323 177.465 412.659 173.796 421.665 163.456C428.336 155.451 440.344 142.442 448.015 134.104L462.024 118.761L460.023 139.107C458.355 157.119 459.022 160.454 465.693 167.125C471.697 173.129 475.7 174.129 484.706 172.795C504.385 169.46 515.058 153.783 497.38 153.783C492.377 153.783 489.042 151.782 489.042 148.78C489.042 140.441 500.716 112.423 510.055 99.0813C519.728 84.7388 519.061 79.7356 507.053 74.3988C496.046 69.0621 485.373 73.7317 462.691 93.0775L444.013 108.754L451.684 96.0794C455.687 89.0749 459.022 82.0704 459.022 80.4027C459.022 76.4001 440.344 57.0544 436.008 57.0544C434.006 57.0544 428.336 63.3918 423.666 71.0634Z" fill="#FFB527"/>
<path d="M640.803 62.0576C616.454 74.3989 595.774 109.421 595.774 138.44C595.774 179.8 629.463 190.473 664.151 159.787C696.172 131.769 702.509 75.7331 675.492 61.7241C663.484 55.7202 653.478 55.7202 640.803 62.0576ZM668.488 96.0794C670.822 118.427 644.806 159.453 630.13 156.451C625.46 155.451 624.126 152.449 624.793 141.442C625.46 125.098 632.798 109.421 646.807 94.4117C659.482 81.0698 667.153 81.7369 668.488 96.0794Z" fill="#FFB527"/>
</svg>
